<svg width="20" height="20" viewBox="0 0 20 20" fill="none" xmlns="http://www.w3.org/2000/svg">
<path d="M8.75 17.4167C5.20833 16.7917 2.5 13.7083 2.5 10C2.5 5.875 5.875 2.5 10 2.5C14.125 2.5 17.5 5.875 17.5 10C17.5 13.7083 14.7917 16.7917 11.25 17.4167L10.8333 17.0833H9.16667L8.75 17.4167Z" fill="url(#paint0_linear_1221_2516)"/>
<path d="M12.9167 12.0807L13.25 9.9974H11.25V8.53906C11.25 7.95573 11.4583 7.4974 12.375 7.4974H13.3333V5.58073C12.7917 5.4974 12.2083 5.41406 11.6667 5.41406C9.95833 5.41406 8.75 6.45573 8.75 8.33073V9.9974H6.875V12.0807H8.75V17.3724C9.16667 17.4557 9.58333 17.4974 10 17.4974C10.4167 17.4974 10.8333 17.4557 11.25 17.3724V12.0807H12.9167Z" fill="white"/>
<defs>
<linearGradient id="paint0_linear_1221_2516" x1="10" y1="16.9808" x2="10" y2="2.5" gradientUnits="userSpaceOnUse">
<stop stop-color="#0062E0"/>
<stop offset="1" stop-color="#19AFFF"/>
</linearGradient>
</defs>
</svg>
