<svg width="20" height="20" viewBox="0 0 20 20" fill="none" xmlns="http://www.w3.org/2000/svg">
<path fill-rule="evenodd" clip-rule="evenodd" d="M16 10.1456C16 9.70242 15.9602 9.27628 15.8864 8.86719H10V11.2848H13.3636C13.2188 12.0661 12.7784 12.728 12.1165 13.1712V14.7394H14.1364C15.3182 13.6513 16 12.049 16 10.1456Z" fill="#4285F4"/>
<path fill-rule="evenodd" clip-rule="evenodd" d="M9.9993 16.25C11.6868 16.25 13.1016 15.6903 14.1357 14.7358L12.1158 13.1676C11.5561 13.5426 10.8402 13.7642 9.9993 13.7642C8.37146 13.7642 6.99361 12.6648 6.50213 11.1875H4.41406V12.8068C5.44247 14.8494 7.55611 16.25 9.9993 16.25Z" fill="#34A853"/>
<path fill-rule="evenodd" clip-rule="evenodd" d="M6.50284 11.1896C6.37784 10.8146 6.30682 10.4141 6.30682 10.0021C6.30682 9.5902 6.37784 9.18963 6.50284 8.81463V7.19531H4.41477C3.99148 8.03906 3.75 8.99361 3.75 10.0021C3.75 11.0107 3.99148 11.9652 4.41477 12.809L6.50284 11.1896Z" fill="#FBBC05"/>
<path fill-rule="evenodd" clip-rule="evenodd" d="M9.9993 6.2358C10.9169 6.2358 11.7408 6.55114 12.3885 7.17046L14.1811 5.37784C13.0987 4.36932 11.684 3.75 9.9993 3.75C7.55611 3.75 5.44247 5.15057 4.41406 7.19319L6.50213 8.81251C6.99361 7.33523 8.37146 6.2358 9.9993 6.2358Z" fill="#EA4335"/>
</svg>
